<svg xmlns="http://www.w3.org/2000/svg" viewBox="0 0 431.73 431.73"><defs><style>.a{fill:#39779b;}.b{fill:#37759a;}</style></defs><title>GRUPPEN-about-rpi-icons</title><path class="a" d="M471.19,311.61V419.54a54.13,54.13,0,0,1-54,54H147.39a54.13,54.13,0,0,1-54-54V149.71a54.13,54.13,0,0,1,54-54H417.22a54.13,54.13,0,0,1,54,54V329c8.1,0,18.89-22.79,27-17.39V149.71c0-45.87-35.08-81-80.95-81H147.39c-45.87,0-81,35.08-81,81V419.54c0,45.87,35.08,81,81,81H417.22c45.87,0,80.95-35.08,80.95-81V284.63Z" transform="translate(-66.44 -68.76)"/><path class="b" d="M129.53,449.19h-8.1V416.79h8.1v32.41Zm32.41-32.41H129.53v-8.1H166v8.1h-4.05Zm-8.1,40.51H129.53v-8.1h28.36v8.1h-4.05Zm4.05-8.1V433h-8.1v-8.1H166v24.31h-8.1Z" transform="translate(-66.44 -68.76)"/><path class="b" d="M174.09,457.3H170V408.68H206.5v8.1h8.1v8.1h-8.1v-8.1H178.14v8.1H206.5V433h-4.05v8.1h8.1v8.1h-8.1v-8.1h-8.1V433h-16.2V457.3h-4.05Zm40.51,0h-4.05v-8.1h8.1v8.1H214.6Z" transform="translate(-66.44 -68.76)"/><path class="b" d="M234.85,449.19h-8.1V408.68h8.1v40.51Zm16.2,8.1h-16.2v-8.1h20.26v8.1h-4.05Zm4.05-8.1V408.68h8.1v40.51h-8.1Z" transform="translate(-66.44 -68.76)"/><path class="b" d="M271.31,457.3h-4.05V408.68h32.41v8.1h8.1v8.1h-8.1v-8.1H275.36v8.1h24.31V433H275.36V457.3h-4.05Z" transform="translate(-66.44 -68.76)"/><path class="b" d="M315.87,457.3h-4.05V408.68h32.41v8.1h8.1v8.1h-8.1v-8.1H319.92v8.1h24.31V433H319.92V457.3h-4.05Z" transform="translate(-66.44 -68.76)"/><path class="b" d="M392.84,457.3H356.38V408.68h40.51v8.1H364.48v8.1h12.15V433H364.48v16.2h32.41v8.1h-4.05Z" transform="translate(-66.44 -68.76)"/><path class="b" d="M405,457.3h-4.05V408.68H409v4.05h8.1v8.1h8.1v8.1h-8.1v-8.1H409V457.3H405Zm32.41,0h-4.05V437h-8.1v-8.1h8.1V408.68h8.1V457.3H437.4Z" transform="translate(-66.44 -68.76)"/><path class="b" d="M348.42,320.94c-7.5-11.62-16.58-19.17-29.58-23.44,0,0-9.8-5-35.42-5s-35.43,5-35.43,5c-13,4.32-22.08,11.82-29.59,23.44-3,4.57-4.58,13.77-4.69,18.69,0,1.28,0,2.76,0,4.24v2.63c0,9.37,6.4,17,14.29,17H338.8c7.9,0,14.29-7.58,14.29-17v-2.63c0-1.48,0-3,0-4.24-0.1-4.91-1.71-14.12-4.68-18.69m-104.07-92.8c0,21.73,13.54,53.64,39.06,53.64,25.07,0,39-31.91,39-53.64a39.06,39.06,0,1,0-78.11,0" transform="translate(-66.44 -68.76)"/><path class="b" d="M240.33,287.56a48.55,48.55,0,0,0-24-16.79s-9.16-4.71-33.1-4.71-33.11,4.71-33.11,4.71c-12.14,4-20.64,11-27.65,21.9-2.78,4.27-4.28,12.87-4.38,17.47,0,1.2,0,2.58,0,4v2.45c0,8.76,6,15.85,13.36,15.85h66.87c1-5.55,2.64-11.63,5-15.33C212.79,302.51,224.17,293.07,240.33,287.56Z" transform="translate(-66.44 -68.76)"/><path class="b" d="M183.26,256.07c23.43,0,36.49-29.83,36.49-50.13a36.5,36.5,0,1,0-73,0C146.75,226.24,159.41,256.07,183.26,256.07Z" transform="translate(-66.44 -68.76)"/><path class="b" d="M326.6,287.56a48.55,48.55,0,0,1,24-16.79s9.16-4.71,33.1-4.71,33.11,4.71,33.11,4.71c12.15,4,20.64,11,27.65,21.9,2.78,4.27,4.28,12.87,4.38,17.47,0,1.2,0,2.58,0,4v2.45c0,8.76-6,15.85-13.36,15.85H368.59c-1-5.55-2.64-11.63-5-15.33C354.14,302.51,342.76,293.07,326.6,287.56Z" transform="translate(-66.44 -68.76)"/><path class="b" d="M383.67,256.07c-23.43,0-36.49-29.83-36.49-50.13a36.5,36.5,0,1,1,73,0C420.18,226.24,407.52,256.07,383.67,256.07Z" transform="translate(-66.44 -68.76)"/></svg>