<svg xmlns="http://www.w3.org/2000/svg" viewBox="0 0 431.73 431.73"><defs><style>.a{fill:#39779b;}.b{fill:#37759a;}</style></defs><title>KURSE-about-rpi-icons</title><path class="a" d="M471.19,311.61V419.54a54.13,54.13,0,0,1-54,54H147.39a54.13,54.13,0,0,1-54-54V149.71a54.13,54.13,0,0,1,54-54H417.22a54.13,54.13,0,0,1,54,54V329c8.1,0,18.89-22.79,27-17.39V149.71c0-45.87-35.08-81-80.95-81H147.39c-45.87,0-81,35.08-81,81V419.54c0,45.87,35.08,81,81,81H417.22c45.87,0,80.95-35.08,80.95-81V284.63Z" transform="translate(-66.44 -68.76)"/><path class="b" d="M176.11,457.3h-4.05V408.68h8.1v20.25h12.15V437h8.1v8.1h-8.1V437H180.16V457.3h-4.05Zm16.2-28.36v-8.1h8.1v8.1h-8.1Zm8.1-8.1v-8.1h8.1v8.1h-8.1Zm4.05,36.46h-4.05V445.14h8.1V457.3h-4.05Z" transform="translate(-66.44 -68.76)"/><path class="b" d="M224.73,449.19h-8.1V408.68h8.1v40.51Zm16.2,8.1h-16.2v-8.1H245v8.1h-4.05Zm4.05-8.1V408.68h8.1v40.51H245Z" transform="translate(-66.44 -68.76)"/><path class="b" d="M261.18,457.3h-4.05V408.68h36.46v8.1h8.1v8.1h-8.1v-8.1H265.24v8.1h28.36V433h-4.05v8.1h8.1v8.1h-8.1v-8.1h-8.1V433h-16.2V457.3h-4.05Zm40.51,0h-4.05v-8.1h8.1v8.1H301.7Z" transform="translate(-66.44 -68.76)"/><path class="b" d="M317.9,424.89h-8.1v-8.1h8.1v8.1Zm16.2,32.41H309.8v-8.1h28.36v8.1H334.1Zm8.1-40.51H317.9v-8.1h28.36v8.1H342.2ZM338.15,433H317.9v-8.1h20.26V433Zm0,16.2V433h8.1v16.2h-8.1Z" transform="translate(-66.44 -68.76)"/><path class="b" d="M386.77,457.3H350.31V408.68h40.51v8.1H358.41v8.1h12.15V433H358.41v16.2h32.41v8.1h-4.05Z" transform="translate(-66.44 -68.76)"/><path class="b" d="M190.81,146.57A6.74,6.74,0,0,0,195,148h51.77a6.85,6.85,0,0,0,6.84-6.84V134a6.72,6.72,0,0,0-1.28-4,6.81,6.81,0,0,0-5.56-2.87h-4.31v-5.55a6.85,6.85,0,0,0-6.84-6.84H206.15a6.85,6.85,0,0,0-6.84,6.84v5.55H195a6.84,6.84,0,0,0-6.84,6.84v7.17A6.77,6.77,0,0,0,190.81,146.57Z" transform="translate(-66.44 -68.76)"/><rect class="b" x="111.15" y="95.24" width="86.59" height="14.17"/><rect class="b" x="111.15" y="121.57" width="86.59" height="14.18"/><rect class="b" x="111.49" y="148.45" width="49.01" height="14.18"/><path class="b" d="M220.19,279.44a25.53,25.53,0,0,0-6-3.68l-0.24-.1-0.07.25c-1.38,4.79-3.59,15.23-3.61,15.33l-0.09.44,0.41-.17c0.09,0,9.9-4.23,14.34-6.51l0.24-.12-0.15-.22A25.69,25.69,0,0,0,220.19,279.44Z" transform="translate(-66.44 -68.76)"/><path class="b" d="M263.08,238.49a3,3,0,0,0-1.08-2l-7.78-6.4a3,3,0,0,0-4.19.41l-33.54,40.8,0.28,0.13a29.82,29.82,0,0,1,11.93,9.81l0.18,0.24,33.54-40.81A3,3,0,0,0,263.08,238.49Z" transform="translate(-66.44 -68.76)"/><path class="b" d="M261.61,134v7.17a13.89,13.89,0,0,1-.25,2.41l0,0.27,17.14,0,0,122h13.18V143.66a13,13,0,0,0-2.7-8,13.25,13.25,0,0,0-2.52-2.52,13,13,0,0,0-8-2.7H261.15l0.07,0.29A15,15,0,0,1,261.61,134Z" transform="translate(-66.44 -68.76)"/><path class="b" d="M163.55,143.88l17.13,0,0-.27a14.93,14.93,0,0,1-.25-2.41V134a14.61,14.61,0,0,1,.41-3.26v-0.29H163.57a13.21,13.21,0,0,0-13.2,13.2l0,156.41A13.14,13.14,0,0,0,152,306.4a13.33,13.33,0,0,0,5.21,5.21,13.18,13.18,0,0,0,6.36,1.63h57.49V300.08l-57.52,0V143.88Z" transform="translate(-66.44 -68.76)"/><path class="b" d="M359.81,363.48c-4.6-7.12-10.17-11.75-18.14-14.37,0,0-6-3.09-21.71-3.09s-21.72,3.09-21.72,3.09c-8,2.65-13.54,7.25-18.14,14.37-1.82,2.8-2.81,8.44-2.87,11.46,0,0.78,0,1.69,0,2.6v1.61c0,5.75,3.92,10.4,8.76,10.4h67.93c4.84,0,8.76-4.65,8.76-10.4v-1.61c0-.91,0-1.82,0-2.6-0.06-3-1-8.65-2.87-11.46M296,306.59c0,13.32,8.3,32.88,23.95,32.88,15.37,0,23.94-19.56,23.94-32.88a23.94,23.94,0,1,0-47.88,0" transform="translate(-66.44 -68.76)"/><path class="b" d="M293.55,343a29.77,29.77,0,0,0-14.69-10.29s-5.62-2.89-20.29-2.89-20.3,2.89-20.3,2.89c-7.44,2.47-12.65,6.77-17,13.43-1.7,2.62-2.62,7.89-2.69,10.71,0,0.74,0,1.58,0,2.43v1.5c0,5.37,3.66,9.71,8.19,9.71h41c0.58-3.4,1.62-7.13,3.1-9.4C276.67,352.18,283.64,346.39,293.55,343Z" transform="translate(-66.44 -68.76)"/><path class="b" d="M258.56,323.71c14.36,0,22.37-18.29,22.37-30.73a22.38,22.38,0,1,0-44.75,0C236.18,305.42,243.94,323.71,258.56,323.71Z" transform="translate(-66.44 -68.76)"/><path class="b" d="M346.44,343a29.77,29.77,0,0,1,14.69-10.29s5.62-2.89,20.29-2.89,20.3,2.89,20.3,2.89c7.45,2.47,12.65,6.77,17,13.43,1.7,2.62,2.62,7.89,2.69,10.71,0,0.74,0,1.58,0,2.43v1.5c0,5.37-3.66,9.71-8.19,9.71h-41c-0.58-3.4-1.62-7.13-3.1-9.4C363.32,352.18,356.34,346.39,346.44,343Z" transform="translate(-66.44 -68.76)"/><path class="b" d="M381.42,323.71c-14.36,0-22.37-18.29-22.37-30.73a22.38,22.38,0,1,1,44.75,0C403.81,305.42,396,323.71,381.42,323.71Z" transform="translate(-66.44 -68.76)"/></svg>