<svg xmlns="http://www.w3.org/2000/svg" viewBox="0 0 431.73 431.73"><defs><style>.a{fill:#39779b;}.b{fill:#37759a;}</style></defs><title>MATERIAL-about-rpi-icons</title><path class="a" d="M471.19,311.61V419.54a54.13,54.13,0,0,1-54,54H147.39a54.13,54.13,0,0,1-54-54V149.71a54.13,54.13,0,0,1,54-54H417.22a54.13,54.13,0,0,1,54,54V329c8.1,0,18.89-22.79,27-17.39V149.71c0-45.87-35.08-81-80.95-81H147.39c-45.87,0-81,35.08-81,81V419.54c0,45.87,35.08,81,81,81H417.22c45.87,0,80.95-35.08,80.95-81V284.63Z" transform="translate(-66.44 -68.76)"/><path class="b" d="M121.42,457.3h-4.05V408.68h8.1v8.1h8.1v8.1h-8.1V457.3h-4.05Zm32.41,0h-4.05V424.89h-8.1V433h-8.1v-8.1h8.1v-8.1h8.1v-8.1h8.1V457.3h-4.05Z" transform="translate(-66.44 -68.76)"/><path class="b" d="M194.34,457.3h-4.05V433H170V457.3h-8.1V416.79H170v8.1h20.25v-8.1h8.1V457.3h-4.05Zm-4.05-40.51H170v-8.1h20.25v8.1Z" transform="translate(-66.44 -68.76)"/><path class="b" d="M222.7,457.3h-4.05V416.79h-16.2v-8.1H243v8.1h-16.2V457.3H222.7Z" transform="translate(-66.44 -68.76)"/><path class="b" d="M283.46,457.3H247V408.68h40.51v8.1H255.11v8.1h12.15V433H255.11v16.2h32.41v8.1h-4.05Z" transform="translate(-66.44 -68.76)"/><path class="b" d="M295.62,457.3h-4V408.68H328v8.1h8.1v8.1H328v-8.1H299.67v8.1H328V433H324v8.1h8.1v8.1H324v-8.1h-8.1V433H299.67V457.3h-4.05Zm40.51,0h-4.05v-8.1h8.1v8.1h-4.05Z" transform="translate(-66.44 -68.76)"/><path class="b" d="M360.43,457.3H348.28v-8.1h4.05V416.79h-4.05v-8.1h16.2v8.1h-4.05v32.41h4.05v8.1h-4.05Z" transform="translate(-66.44 -68.76)"/><path class="b" d="M400.94,457.3h-4.05V433H376.64V457.3h-8.1V416.79h8.1v8.1h20.26v-8.1H405V457.3h-4.05Zm-4.05-40.51H376.64v-8.1h20.26v8.1Z" transform="translate(-66.44 -68.76)"/><path class="b" d="M441.45,457.3H409V408.68h8.1v40.51H445.5v8.1h-4.05Z" transform="translate(-66.44 -68.76)"/><path class="b" d="M190.41,244l-9-2.69a3,3,0,0,1-1.8-2.25V203.54a2.29,2.29,0,0,1,1.8-2.25l9-2.69c3.14-.9,5.84-4,5.39-7.19-0.45-4.49-4.49-6.74-8.53-5.84l-13.47,4h-1.35l-13.47-4c-4-1.35-8.08,1.35-8.53,5.84-0.45,3.14,2.25,6.29,5.39,7.19l9,2.69a3,3,0,0,1,1.8,2.25V239a2.29,2.29,0,0,1-1.8,2.25l-9,2.69c-3.14.9-5.84,4-5.39,7.63a6.75,6.75,0,0,0,6.74,5.84A2.7,2.7,0,0,0,159,257l13.47-4h1.35l13.47,4c0.45,0,1.35.45,1.8,0.45a6.75,6.75,0,0,0,6.74-5.84A6.9,6.9,0,0,0,190.41,244Z" transform="translate(-66.44 -68.76)"/><path class="b" d="M273.49,266H143.71a6.91,6.91,0,0,1-6.74-6.74V183.33a6.91,6.91,0,0,1,6.74-6.74H300.88a3.43,3.43,0,0,0,2.25-.9c2.25-1.35,7.19-4.49,9.88-5.84a75.85,75.85,0,0,1,75,4.94,7.59,7.59,0,0,0,4.49,1.35h20.66a6.91,6.91,0,0,1,6.74,6.74v36.37a78.43,78.43,0,0,1,0,38.17v1.35a5.77,5.77,0,0,1-1.8,4.49,99.63,99.63,0,0,1-9,18.41l1.35,2.25h18.41a9,9,0,0,0,9-9V167.61a9,9,0,0,0-9-9H128a9,9,0,0,0-9,9V274.94a9,9,0,0,0,9,9H278c2.69,0,4.49-3.14,3.14-5.84-1.35-2.25-2.69-4.94-4-7.63l-1.8-3.59C275.28,266.41,274.39,266,273.49,266Z" transform="translate(-66.44 -68.76)"/><path class="b" d="M397.43,211.62A58.54,58.54,0,0,0,313,191c-22,14.82-31,44-21.11,68.71a58.29,58.29,0,0,0,62.42,36.82,4.88,4.88,0,0,1,5.39,3.14l24.7,61.52a16.41,16.41,0,0,0,23.35,8.53l11.68-6.29a16.46,16.46,0,0,0,5.84-24.25L388,284.37a4.81,4.81,0,0,1,.45-6.29A57.82,57.82,0,0,0,397.43,211.62Zm-30.54,66.46a43.94,43.94,0,0,1-59.73-18.41,44.42,44.42,0,0,1,18-60.17,43.94,43.94,0,0,1,59.73,18.41A44.42,44.42,0,0,1,366.89,278.09Z" transform="translate(-66.44 -68.76)"/></svg>