<svg xmlns="http://www.w3.org/2000/svg" viewBox="0 0 431.73 431.73"><defs><style>.a{fill:#39779b;}.b{fill:#37759a;}</style></defs><title>NEWS-about-rpi-icons</title><path class="a" d="M471.19,311.61V419.54a54.13,54.13,0,0,1-54,54H147.39a54.13,54.13,0,0,1-54-54V149.71a54.13,54.13,0,0,1,54-54H417.22a54.13,54.13,0,0,1,54,54V329c8.1,0,18.89-22.79,27-17.39V149.71c0-45.87-35.08-81-80.95-81H147.39c-45.87,0-81,35.08-81,81V419.54c0,45.87,35.08,81,81,81H417.22c45.87,0,80.95-35.08,80.95-81V284.63Z" transform="translate(-66.44 -68.76)"/><path class="b" d="M200.42,457.3h-4.05V408.68h8.1v4.05h8.1v8.1h8.1v8.1h-8.1v-8.1h-8.1V457.3h-4.05Zm32.41,0h-4.05V437h-8.1v-8.1h8.1V408.68h8.1V457.3h-4.05Z" transform="translate(-66.44 -68.76)"/><path class="b" d="M277.39,457.3H240.93V408.68h40.51v8.1H249v8.1h12.15V433H249v16.2h32.41v8.1h-4.05Z" transform="translate(-66.44 -68.76)"/><path class="b" d="M289.54,457.3h-4.05V408.68h8.1v32.41h8.1v8.1h-8.1v8.1h-4.05Zm20.25-16.2h-8.1V433h8.1v8.1Zm12.15,16.2H317.9v-8.1h-8.1v-8.1h8.1V408.68H326V457.3h-4.05Z" transform="translate(-66.44 -68.76)"/><path class="b" d="M338.15,424.89h-8.1v-8.1h8.1v8.1Zm16.2,32.41H330.05v-8.1h28.36v8.1h-4.05Zm8.1-40.51H338.15v-8.1h28.36v8.1h-4.05ZM358.41,433H338.15v-8.1h20.26V433Zm0,16.2V433h8.1v16.2h-8.1Z" transform="translate(-66.44 -68.76)"/><ellipse class="b" cx="132.37" cy="272.56" rx="31.56" ry="31.9"/><path class="b" d="M319.78,373.22H275.07c0-60.2-48.27-109-107.82-109h0V219C251.49,219,319.78,288.06,319.78,373.22Z" transform="translate(-66.44 -68.76)"/><path class="b" d="M351.34,373.22c0-102.78-82.42-186.1-184.09-186.1V140.6c127.09,0,230.11,104.15,230.11,232.62h-46Z" transform="translate(-66.44 -68.76)"/></svg>