<svg xmlns="http://www.w3.org/2000/svg" viewBox="0 0 431.73 431.73"><defs><style>.a{fill:#39779b;}.b{fill:#37759a;}.c{fill:none;}</style></defs><title>REFORMATION-about-rpi-icons</title><path class="a" d="M471.19,311.61V419.54a54.13,54.13,0,0,1-54,54H147.39a54.13,54.13,0,0,1-54-54V149.71a54.13,54.13,0,0,1,54-54H417.22a54.13,54.13,0,0,1,54,54V329c8.1,0,18.89-22.79,27-17.39V149.71c0-45.87-35.08-81-80.95-81H147.39c-45.87,0-81,35.08-81,81V419.54c0,45.87,35.08,81,81,81H417.22c45.87,0,80.95-35.08,80.95-81V284.63Z" transform="translate(-66.44 -68.76)"/><path class="b" d="M298.6,188c-2.93.82-9,1.53-8.92,5.46,0,1,1.65,11.86,4.07,11.86.84,0,1.28-4.72,2.09-5.13,2.92-1.94,6.25,5.5,7.31-3.16,4.78-1.08,3.17,2.67,4.82,3.73,7.54,4.43-2.09-13.33-2.09-6.71a7.1,7.1,0,0,0,2.12,1.82c0-.63-12.1-.08-13.17,2.76-.05.13.48-6.57,2.09-4.89-.1-.1,3.92-1.33,4-1.49a1.84,1.84,0,0,1,0-1.49c1.54-.61,4.83,1.89,6.92.15a1.14,1.14,0,0,0-1-2c-1.9.52-5.39-1.69-8.19-.94Z" transform="translate(-66.44 -68.76)"/><path class="b" d="M267.5,191.28c-1.8.29-16.85,3.42-15.54,7,1.31,3.28,2.13-1.57,1.88-1.46a14.89,14.89,0,0,0,1.7.67,2.18,2.18,0,0,1,1.73-1.46q-.15,1-.27,1.94c2.59,1.63,9.53-2.47,14.81.55,7.28,4.16,18,18.7,16.32,26.37-.71,2.82-5.24,9.15-8.22,4.67-.1-.17-.49-5.69-1.76-5.22-5.43,2.29.57,16.75,8.28,8.25,10.09,2.43,8.24-2,13.38-6.28a2.15,2.15,0,0,1,1.88.61.83.83,0,0,0,.27-1.61c-.11,0,1.77-3-1.88-2.52-6.53.69-2.68,6-9,.79-3.6-3,1-6.75-.36-10s-6-9.22-8.26-12.12c-2.57-3.27-9.68-11.16-15-10.26Z" transform="translate(-66.44 -68.76)"/><path class="b" d="M245,193.16c-2.11,6.33,1.73,12.33,1.64,13.11.25-2.21-3.12.47-.06-1.27-1.45.87.4-5.43,0-4.67-1.27,2,0-7.5.09-6.74-.12-.85-1.37-1.15-1.64-.42C244.93,193.43,245.29,192.43,245,193.16Z" transform="translate(-66.44 -68.76)"/><path class="b" d="M258.4,198.22c-9.85,5.27-2.5,8.51-.06,7.37a16.22,16.22,0,0,0,6.13.67,8.22,8.22,0,0,0,2-4.58c-.08,0,9.71,4.12,9.71,3.19,0-4.73-18.81-5.94-18.81-2.31a28.39,28.39,0,0,1,3.28-4.79c-.94-.24-.88-.27-2.22.46C254.94,200.07,259.73,197.5,258.4,198.22Z" transform="translate(-66.44 -68.76)"/><path class="b" d="M300.55,240.7c-1,1.7-8.49,1.79-10.1.18.06.06-9.92,4.63-9.68,5.31-.13-.47-5.09-2-5.52-1.24.74-1.24-1.17,3-.79,1.94-1,2.38,5.25,1.48,4.49.24,2.61,3.92,16.77-1.08,18.9-2.56,4.55-3.16.64-.7,2.7-3.87C300.42,240.92,300.94,240.1,300.55,240.7Z" transform="translate(-66.44 -68.76)"/><path class="b" d="M281.28,265.92a4.72,4.72,0,0,0,0,.61c.13.7-3.52-.49-3.34-.39a.89.89,0,0,0-1.27,1.18,8.5,8.5,0,0,0,1.7,1,5.66,5.66,0,0,1-.15,1.52c.36.39,3.18.66,3.88,1.3-.34-.36,1.73.49,2.09.79a2.49,2.49,0,0,0,1.49-1.09c.3.09,4.3,2.74,5.92,1a2.78,2.78,0,0,1,.33-1.49,3,3,0,0,0,2.46.06c.2-.37.77-3.09-.06-2.94-2.93.39-6.57,1.37-7.86-.24-.33-.38-4.2.16-3.91.33.83.52-1.1-4-1.24-1.61C281.25,266.13,281.31,265.4,281.28,265.92Z" transform="translate(-66.44 -68.76)"/><path class="b" d="M261.89,130.86c-15.73,1.45-86.46,15.67-77.77,42.23,2.76,8.42,14.72,8.36,18.78,15.85,4.87,9-2.64,23.22,1,32.15,3.51,8.51,16.16,8.83,14.49,19.63-1.44,9.3-19.45,18-25.88,23.4-27.17,22.63-16.3,53.29-16,85,.15,18.34-12.57,57.32.1,72.6,11.77,14.19,50.17,7.15,65.74,6.18,24-1.5,46.47-2.66,70.47-.52,21.48,1.92,53.89,9.67,59.11-17.4,3.12-16.21-1.25-35-1-51.47.34-21.29,4.05-45-.9-66-3.91-16.58-16.66-22.47-27.64-34.73-6.57-7.33-12.77-32.15-21.59-34.84-1.61-.51-5.41,27.48-6.38,29.92-6.82,17.27-22.3,25.1-39.94,21.21-12-2.64-23.84-8.63-31.14-18.26-2.92-3.86-3.71-18.58-8.32-24.92,3.06,3.93,7.36,3.2,12.38,8.22a2.78,2.78,0,0,0,2.15-2.82c-6.44-15.64-20.74-25.58-14.18-43.87,5.13-14.29,12.48-13,25.24-16C268.15,174.67,311,163,311,175.38a3.36,3.36,0,0,1-1.85.27c-2.8,2.8,7.84,35.29,13.47,34.2,13.18-2.55-.19-29.23.09-30,2.71-7.37,13.18-6.65,16.31-13.9,5.19-12-5.89-17.66-14.34-22-12-6.2-25.87-10-39.2-12-3.92-.58-28.93-.59-23.64-1.1C243.93,132.52,263.47,130.71,261.89,130.86Zm-84,287.07h-3V382.07h26.9v6H180.83v6h12v6h-12v17.93Zm32.87-6h-6V388h6V412ZM234.63,388H210.72v-6h23.91v6Zm-3,29.88H210.72v-6h23.91v6Zm3-6V388h6V412h-6Zm12,6h-3V382.07h26.9v6h6v6h-6v-6H249.57v6h20.92v6h-3v6h6v6h-6v-6h-6v-6h-12v17.93Zm29.88,0h-3v-6h6v6Zm9,0h-3V382.07h6v6h6v6h-6v23.91Zm23.91,0h-3V394h-6v6h-6v-6h6v-6h6v-6h6v35.86Zm29.88,0h-3V400H321.29v17.93h-6V388h6v6h14.94v-6h6v29.88Zm-3-29.88H321.29v-6h14.94v6Zm23.91,29.88h-3V388h-12v-6h29.88v6h-12v29.88Z" transform="translate(-66.44 -68.76)"/><path class="b" d="M105.16,417.93h-3V382.07h26.9v6h6v6h-6v-6H108.15v6h20.92v6h-3v6h6v6h-6v-6h-6v-6h-12v17.93Zm29.88,0h-3v-6h6v6Z" transform="translate(-66.44 -68.76)"/><path class="b" d="M167.91,417.93H141V382.07H170.9v6H147v6h9v6h-9v12H170.9v6Z" transform="translate(-66.44 -68.76)"/><path class="c" d="M176.88,417.93h-3V382.07h26.9v6H179.87v6h12v6h-12v17.93Z" transform="translate(-66.44 -68.76)"/><path class="c" d="M209.75,412h-6V388h6V412ZM233.66,388H209.75v-6h23.91v6Zm-3,29.88H209.75v-6h23.91v6Zm3-6V388h6V412h-6Z" transform="translate(-66.44 -68.76)"/><path class="c" d="M245.61,417.93h-3V382.07h26.9v6h6v6h-6v-6H248.6v6h20.92v6h-3v6h6v6h-6v-6h-6v-6h-12v17.93Zm29.88,0h-3v-6h6v6Z" transform="translate(-66.44 -68.76)"/><path class="c" d="M284.46,417.93h-3V382.07h6v6h6v6h-6v23.91Zm23.91,0h-3V394h-6v6h-6v-6h6v-6h6v-6h6v35.86Z" transform="translate(-66.44 -68.76)"/><path class="c" d="M338.26,417.93h-3V400H320.33v17.93h-6V388h6v6h14.94v-6h6v29.88Zm-3-29.88H320.33v-6h14.94v6Z" transform="translate(-66.44 -68.76)"/><path class="c" d="M359.18,417.93h-3V388h-12v-6h29.88v6h-12v29.88Z" transform="translate(-66.44 -68.76)"/><path class="b" d="M389.06,417.93h-9v-6h3V388h-3v-6h12v6h-3V412h3v6Z" transform="translate(-66.44 -68.76)"/><path class="b" d="M401,412h-6V388h6V412ZM424.92,388H401v-6h23.91v6Zm-3,29.88H401v-6h23.91v6Zm3-6V388h6V412h-6Z" transform="translate(-66.44 -68.76)"/><path class="b" d="M436.88,417.93h-3V382.07h6v3h6v6h6v6h-6v-6h-6v26.9Zm23.91,0h-3V403h-6v-6h6V382.07h6v35.86Z" transform="translate(-66.44 -68.76)"/></svg>