<svg xmlns="http://www.w3.org/2000/svg" viewBox="0 0 431.73 431.73"><defs><style>.a{fill:#37759a;}.b{fill:#39779b;}</style></defs><title>RELILEX-about-rpi-icons</title><path class="a" d="M141.68,457.3h-4.05V408.68h36.46v8.1h8.1v8.1h-8.1v-8.1H145.73v8.1h28.36V433H170v8.1h8.1v8.1H170v-8.1h-8.1V433h-16.2V457.3h-4.05Zm40.51,0h-4.05v-8.1h8.1v8.1h-4.05Z" transform="translate(-66.44 -68.76)"/><path class="a" d="M226.75,457.3H190.29V408.68H230.8v8.1H198.39v8.1h12.15V433H198.39v16.2H230.8v8.1h-4.05Z" transform="translate(-66.44 -68.76)"/><path class="a" d="M267.26,457.3H234.85V408.68H243v40.51h28.36v8.1h-4.05Z" transform="translate(-66.44 -68.76)"/><path class="a" d="M291.57,457.3H279.41v-8.1h4.05V416.79h-4.05v-8.1h16.2v8.1h-4v32.41h4v8.1h-4Z" transform="translate(-66.44 -68.76)"/><path class="a" d="M332.08,457.3H299.67V408.68h8.1v40.51h28.36v8.1h-4.05Z" transform="translate(-66.44 -68.76)"/><path class="a" d="M376.64,457.3H340.18V408.68h40.51v8.1H348.28v8.1h12.15V433H348.28v16.2h32.41v8.1h-4.05Z" transform="translate(-66.44 -68.76)"/><path class="a" d="M392.84,416.79h-8.1v-8.1h8.1v8.1Zm-4.05,40.51h-4.05v-16.2h8.1v16.2h-4.05Zm12.15-32.41h-8.1v-8.1h8.1v8.1Zm-8.1,16.2V433h8.1v8.1h-8.1ZM409,433h-8.1v-8.1H409V433Zm0-8.1v-8.1h8.1v8.1H409Zm8.1,16.2H409V433h8.1v8.1Zm0-24.31v-8.1h8.1v8.1h-8.1Zm4.05,40.51h-4.05v-16.2h8.1v16.2H421.2Z" transform="translate(-66.44 -68.76)"/><path class="b" d="M471.19,311.61V419.54a54.13,54.13,0,0,1-54,54H147.39a54.13,54.13,0,0,1-54-54V149.71a54.13,54.13,0,0,1,54-54H417.22a54.13,54.13,0,0,1,54,54V329c8.1,0,18.89-22.79,27-17.39V149.71c0-45.87-35.08-81-80.95-81H147.39c-45.87,0-81,35.08-81,81V419.54c0,45.87,35.08,81,81,81H417.22c45.87,0,80.95-35.08,80.95-81V284.63Z" transform="translate(-66.44 -68.76)"/><path class="a" d="M383.11,141.93V363.28H205.87c-11.16,0-22.05-5.58-22.05-22.05H361.06V119.61H195c-33.22,0-33.22,0-33.22,33.22V341c0,33.22,27.63,44.38,55.27,44.38H405.17V164ZM182.65,202.4a55.13,55.13,0,0,1,55.07-55.07,11.3,11.3,0,0,1,1.58.16,11.25,11.25,0,0,1,1.58-.16A55.13,55.13,0,0,1,296,202.4a11,11,0,0,1-.18,1.82A10.94,10.94,0,0,1,296,206a54.72,54.72,0,0,1-10.5,32.21l48.61,48.61a11.11,11.11,0,1,1-15.72,15.72L269,253.25a54.64,54.64,0,0,1-28.16,7.83,10.91,10.91,0,0,1-1.58-.16,11,11,0,0,1-1.58.16A55.14,55.14,0,0,1,182.65,206a10.8,10.8,0,0,1,.18-1.82A10.77,10.77,0,0,1,182.65,202.4Z" transform="translate(-66.44 -68.76)"/><path class="a" d="M235.85,200.81a6.45,6.45,0,0,0-6.51,5.94h12.36C241.78,204.43,240.59,200.81,235.85,200.81Z" transform="translate(-66.44 -68.76)"/><path class="a" d="M273.72,202.4a32.88,32.88,0,0,0-32.84-32.84,11.23,11.23,0,0,1-1.58-.16,11.34,11.34,0,0,1-1.58.16,32.88,32.88,0,0,0-32.84,32.84,10.83,10.83,0,0,1-.18,1.82,10.73,10.73,0,0,1,.18,1.8,32.88,32.88,0,0,0,32.84,32.84,11,11,0,0,1,1.58.16,10.88,10.88,0,0,1,1.58-.16A32.88,32.88,0,0,0,273.72,206a11,11,0,0,1,.19-1.82A11,11,0,0,1,273.72,202.4Zm-13.45-10.79a4.89,4.89,0,0,1,3.66,1.89c0.76,1.07.27,2-1.3,2a4.07,4.07,0,0,1-3.35-2C258.66,192.39,259,191.61,260.27,191.61Zm-37.09,10.15a7.21,7.21,0,0,0-1.43-.12,5.52,5.52,0,0,0-5.72,4.7,6.22,6.22,0,0,0,0,1.69c0.73,4.23,1.61,6.34,4.4,9.6H217.1c-4.24-4.21-5.36-7.15-5.56-12.7a23.62,23.62,0,0,1,.62-6.23h3.62a17.6,17.6,0,0,0-.51,3.9h0.19a7.94,7.94,0,0,1,7-4.34,4.87,4.87,0,0,1,1.15.12A25.79,25.79,0,0,0,223.18,201.76Zm22.58,5.9a10.32,10.32,0,0,1-.23,1.67h-16c0.58,4.81,4.4,6.37,8.06,6.37a16.19,16.19,0,0,0,5.68-.88c0.16,0.9.22,1.34,0.32,2.16a19,19,0,0,1-6.31,1c-5.68,0-11-3-11.76-8.93s4.19-10.75,10.78-10.75C243.65,198.25,245.92,204,245.76,207.66Zm6.38,10h-3.4a32.93,32.93,0,0,0-.14-27.14H252C256.4,198,256.45,210,252.14,217.62Zm9.13,0h-3.4c5.16-6.11,6-11.15,4-18.93H266C268.32,206.47,267.37,211.51,261.27,217.62Z" transform="translate(-66.44 -68.76)"/></svg>