<svg xmlns="http://www.w3.org/2000/svg" viewBox="0 0 566.93 566.93"><defs><style>.a{fill:#fff;}.b{fill:#37759a;}</style></defs><title>rpi-virtuell-logo</title><rect class="a" width="566.93" height="566.93"/><path class="b" d="M65.51,196.1H137v32.26h.74q9-18.22,22.23-27.89,12.68-9.3,32.7-9.3a79.48,79.48,0,0,1,21.86,3v67.92a72.31,72.31,0,0,0-11.77-3.79,106.63,106.63,0,0,0-17.65-1.14q-44.87-.76-45.23,60.92v79.71H65.51Z"/><path class="b" d="M191.23,191.54H263.1v22.2h.74a64.53,64.53,0,0,1,8.27-10.06,38.86,38.86,0,0,1,10.48-8.54Q294.71,187,321,186.6q21.13.38,36.94,9.3a79.89,79.89,0,0,1,25.18,24.86q20,32.64,20,72.68a191.15,191.15,0,0,1-3.49,36.05,103,103,0,0,1-13.24,33.78Q368,397,319.86,398.37q-35.12-.38-53.51-27.22h-.74v87.38H191.23ZM263,292.77a100.43,100.43,0,0,0,1.58,17.5,53.58,53.58,0,0,0,5.32,16q7.49,16,28.19,16.35,10.83,0,18.13-5.14a27.29,27.29,0,0,0,10.45-11.22,84.31,84.31,0,0,0,6.5-33.47,89.64,89.64,0,0,0-6.5-34.8,27.32,27.32,0,0,0-10.45-11.22q-7.29-4.37-18.13-4.37-20.7.38-28.19,15.6a53.56,53.56,0,0,0-5.32,16A112.51,112.51,0,0,0,263,292.77Z"/><path class="b" d="M498.17,169.62H423.82V115.75h74.35Zm-74.35,21.84h74.35V393.18H423.82Z"/><path class="b" d="M280.81,431.61h5.31v15.94h5.31v5.31h5.31v-5.31h5.31V431.61h5.31v15.94h-5.31v5.31h-5.31v5.31h-5.31v-5.31h-5.31v-5.31h-5.31Z"/><path class="b" d="M312.69,431.61H318v26.57h-5.31Z"/><path class="b" d="M349.88,436.92v5.31h-5.31v10.63h5.31v5.31h-5.31v-5.31h-5.31v-5.31H328.63v10.63h-5.31V431.61h21.25v5.31Zm-5.53,5.31v-5.31H328.63v5.31Z"/><path class="b" d="M381.76,431.61v5.31H371.13v21.25h-5.31V436.92H355.2v-5.31Z"/><path class="b" d="M408.33,458.17H392.39v-5.31h-5.31V431.61h5.31v21.25h15.94V431.61h5.31v21.25h-5.31Z"/><path class="b" d="M445.52,436.92H424.27v5.31h15.94v5.31H424.27v5.31h21.25v5.31H419V431.61h26.57Z"/><path class="b" d="M456.15,452.86h15.94v5.31H450.83V431.61h5.31Z"/><path class="b" d="M482.71,452.86h15.94v5.31H477.4V431.61h5.31Z"/></svg>