<svg xmlns="http://www.w3.org/2000/svg" viewBox="0 0 431.73 431.73"><defs><style>.a{fill:#39779b;}.b{fill:#37759a;}</style></defs><title>SUPPORT-about-rpi-icons</title><path class="a" d="M471.19,311.61V419.54a54.13,54.13,0,0,1-54,54H147.39a54.13,54.13,0,0,1-54-54V149.71a54.13,54.13,0,0,1,54-54H417.22a54.13,54.13,0,0,1,54,54V329c8.1,0,18.89-22.79,27-17.39V149.71c0-45.87-35.08-81-80.95-81H147.39c-45.87,0-81,35.08-81,81V419.54c0,45.87,35.08,81,81,81H417.22c45.87,0,80.95-35.08,80.95-81V284.63Z" transform="translate(-66.44 -68.76)"/><path class="b" d="M129.53,424.89h-8.1v-8.1h8.1v8.1Zm16.2,32.41H121.42v-8.1h28.36v8.1h-4.05Zm8.1-40.51H129.53v-8.1h28.36v8.1h-4.05ZM149.78,433H129.53v-8.1h20.25V433Zm0,16.2V433h8.1v16.2h-8.1Z" transform="translate(-66.44 -68.76)"/><path class="b" d="M174.09,449.19H166V408.68h8.1v40.51Zm16.2,8.1h-16.2v-8.1h20.26v8.1h-4.05Zm4.05-8.1V408.68h8.1v40.51h-8.1Z" transform="translate(-66.44 -68.76)"/><path class="b" d="M210.55,457.3H206.5V408.68H238.9v8.1H247v8.1h-8.1v-8.1H214.6v8.1H238.9V433H214.6V457.3h-4.05Z" transform="translate(-66.44 -68.76)"/><path class="b" d="M255.11,457.3h-4.05V408.68h32.41v8.1h8.1v8.1h-8.1v-8.1H259.16v8.1h24.31V433H259.16V457.3h-4.05Z" transform="translate(-66.44 -68.76)"/><path class="b" d="M303.72,449.19h-8.1V416.79h8.1v32.41Zm32.41-32.41H303.72v-8.1h32.41v8.1Zm-4.05,40.51H303.72v-8.1h32.41v8.1h-4.05Zm4.05-8.1V416.79h8.1v32.41h-8.1Z" transform="translate(-66.44 -68.76)"/><path class="b" d="M352.33,457.3h-4.05V408.68h36.46v8.1h8.1v8.1h-8.1v-8.1H356.38v8.1h28.36V433h-4.05v8.1h8.1v8.1h-8.1v-8.1h-8.1V433h-16.2V457.3h-4.05Zm40.51,0h-4.05v-8.1h8.1v8.1h-4.05Z" transform="translate(-66.44 -68.76)"/><path class="b" d="M421.2,457.3h-4.05V416.79h-16.2v-8.1h40.51v8.1h-16.2V457.3H421.2Z" transform="translate(-66.44 -68.76)"/><path class="b" d="M283.46,133c-33.8,0-66.42,9.09-92.15,26.12-32.62,21.57-51.93,54.62-51.93,90.35,0,33.47,17.09,64.51,46,86.05L167.1,382.47a8.49,8.49,0,0,0,11.21,10.91l71-30.62a183,183,0,0,0,34.12,3.3c33.8,0,66.41-9.2,92.15-26.22,32.61-21.57,51.93-54.62,51.93-90.35s-19.32-68.79-51.93-90.35C349.87,142.11,317.26,133,283.46,133Zm58.63,39.72a40.73,40.73,0,0,1,23.91,7.1,1.16,1.16,0,0,1,.3.4,1.4,1.4,0,0,1-.4,1.9l-29,16.71a4.06,4.06,0,0,0-1.4,5.6L347,224.38a4,4,0,0,0,5.5,1.5l28.92-16.71a1.45,1.45,0,0,1,1.9.6,1.42,1.42,0,0,1,.2.5,40.67,40.67,0,0,1-64.64,35.82c-29.86,20.18-69.54,46.74-99.76,66.34-11,7.15-25.94,2.58-32.52-8.81s-3.07-26.58,8.71-32.42L302.58,218A40.85,40.85,0,0,1,342.1,172.75ZM206.92,277.81a13.5,13.5,0,0,0-6.5,1.8A14.07,14.07,0,1,0,206.92,277.81Z" transform="translate(-66.44 -68.76)"/></svg>